<svg class="main-svg" xmlns="http://www.w3.org/2000/svg" xmlns:xlink="http://www.w3.org/1999/xlink" width="640" height="460" style="" viewBox="0 0 640 460"><rect x="0" y="0" width="640" height="460" style="fill: rgb(255, 255, 255); fill-opacity: 1;"/><defs id="defs-b6a469"><g class="clips"><clipPath id="clipb6a469xyplot" class="plotclip"><rect width="560" height="330"/></clipPath><clipPath class="axesclip" id="clipb6a469x"><rect x="40" y="0" width="560" height="460"/></clipPath><clipPath class="axesclip" id="clipb6a469y"><rect x="0" y="70" width="640" height="330"/></clipPath><clipPath class="axesclip" id="clipb6a469xy"><rect x="40" y="70" width="560" height="330"/></clipPath></g><g class="gradients"/><g class="patterns"/></defs><g class="bglayer"/><g class="layer-below"><g class="imagelayer"/><g class="shapelayer"/></g><g class="cartesianlayer"><g class="subplot xy"><g class="layer-subplot"><g class="shapelayer"/><g class="imagelayer"/></g><g class="minor-gridlayer"><g class="x"/><g class="y"/></g><g class="gridlayer"><g class="x"/><g class="y"/></g><g class="zerolinelayer"/><g class="layer-between"><g class="shapelayer"/><g class="imagelayer"/></g><path class="xlines-below"/><path class="ylines-below"/><g class="overlines-below"/><g class="xaxislayer-below"/><g class="yaxislayer-below"/><g class="overaxes-below"/><g class="overplot"><g class="xy" transform="translate(40,70)" clip-path="url(#clipb6a469xyplot)"><g class="scatterlayer mlayer"><g class="trace scatter trace3a2a9c" style="stroke-miterlimit: 2; opacity: 1;"><g class="fills"/><g class="errorbars"/><g class="lines"><path class="js-line" d="M344.67,28.87L508.78,31.27L516.05,33.86L523.3,40.02L527.33,46.12L531.11,53.31L532.25,57.41L531.5,65.85L529.95,69.41L524.26,76.06L523.6,76.52L521.29,77.76L515.18,79.02L503.35,77.28L499.96,76.5L482.18,73.04L477.98,72.78L467.12,74.46L462.67,76.89L445.54,91.68L441.54,92.61L431.02,90.62L424.88,87.34L415.98,82.77L410.46,81.51L402.29,82.89L399.61,84.12L396.83,85.94L392.1,90.59L384.47,99.14L379.08,103.11L371.9,105.54L368.88,105.9L360.44,104.72L358.11,103.62L352.08,97.47L346.2,84.62L339.78,73L336.93,70.51L332.14,68.33L327.28,67.61L318.38,69.54L312.73,72.4L302.85,78.25L299.25,81.21L290.39,90.44L286.95,95.13L282.01,103.93L280.35,108.49L276.62,125.48L276.34,132.27L278.1,145.58L280.38,157.41L279.1,150.58" style="vector-effect: none; fill: none; stroke: rgb(255, 128, 0); stroke-opacity: 1; stroke-width: 5px; opacity: 1;"/></g><g class="points"/><g class="text"/></g><g class="trace scatter trace811b93" style="stroke-miterlimit: 2; opacity: 1;"><g class="fills"/><g class="errorbars"/><g class="lines"><path class="js-line" d="M280.38,157.41L284.13,183.04L283.74,186.59L279.3,195.84L277.11,199.92L266.7,216.69L263.74,219.67L257.7,221.92L254.65,221.37L249.52,218.74L247.13,216.93L237.3,210.22L233.95,208.15L194.09,182.51L191.47,180.24L185.16,171.9L182.76,167.06L174.58,149.24L173.4,148.27L169.48,147.33L167.87,147.85L165.6,150.14L164.66,152.77L164.8,157.3L167.06,164.38L173.91,188.34L175.27,194.3L176.74,204.66L176.81,210.34L175.85,219.68L174.73,223.81L168.12,236.71L164.34,242.41L156.39,251.69L151.54,256.14L136.57,266.67L132.61,269L120.61,274.84L114.72,276.63L100.34,278.53L96.97,278.43L84.58,276.23L76.43,273.36L49.37,264.6L46.28,264.17L41.87,264.54L36.18,267.05L35.3,267.71L29.56,273.97L23.35,285.3L21.73,290.97L21.69,298.2L22.62,301.33L34.06,312.07L40.5,313.5L54.42,312.22L57.65,311.49L80.18,305.21L84.82,303.66L113.32,291.96L119.96,288.74L137.87,278.53L145.37,273.7L160.38,263.82" style="vector-effect: none; fill: none; stroke: rgb(0, 147, 221); stroke-opacity: 1; stroke-width: 5px; opacity: 1;"/></g><g class="points"/><g class="text"/></g><g class="trace scatter trace88aea8" style="stroke-miterlimit: 2; opacity: 1;"><g class="fills"/><g class="errorbars"/><g class="lines"><path class="js-line" d="M160.38,263.82L243.76,208.46L249.66,203.13L252.03,199.3L254.93,191.98L259.35,175.68L260.42,169.09L261.64,148.6L261.46,143.34L260.02,91.2L261.19,87.92L264.35,83.68L266.89,82.62L272.87,80.97L274.13,79.86L276.47,75.9L277.11,72.7L278.05,56.34L279.87,52.4L285.14,45.19L288.65,41.68L300.25,33.99L302.74,32.88L309.8,30.52L317.16,29.26L334.62,28.79L342.91,28.87L344.67,28.87" style="vector-effect: none; fill: none; stroke: rgb(0, 147, 221); stroke-opacity: 1; stroke-width: 5px; opacity: 1;"/></g><g class="points"/><g class="text"/></g></g></g></g><path class="xlines-above crisp" d="M0,0" style="fill: none;"/><path class="ylines-above crisp" d="M0,0" style="fill: none;"/><g class="overlines-above"/><g class="xaxislayer-above"/><g class="yaxislayer-above"/><g class="overaxes-above"/></g></g><g class="polarlayer"/><g class="smithlayer"/><g class="ternarylayer"/><g class="geolayer"/><g class="funnelarealayer"/><g class="pielayer"/><g class="iciclelayer"/><g class="treemaplayer"/><g class="sunburstlayer"/><g class="glimages"/><defs id="topdefs-b6a469"><g class="clips"/></defs><g class="layer-above"><g class="imagelayer"/><g class="shapelayer"><g class="shape-group" data-index="0" clip-path="url(#clipb6a469xy)"><path data-index="0" fill-rule="evenodd" d="M579.0100000000001,96.36A8.300000000000068,7.929999999999993 0 1,1 570.71,88.43A8.300000000000068,7.929999999999993 0 0,1 579.0100000000001,96.36Z" style="opacity: 1; stroke: rgb(0, 0, 0); stroke-opacity: 1; fill: rgb(200, 16, 46); fill-opacity: 1; stroke-width: 2px;"/></g><g class="shape-group" data-index="1" clip-path="url(#clipb6a469xy)"><path data-index="1" fill-rule="evenodd" d="M590.7700000000001,146.47000000000003A8.300000000000068,7.929999999999978 0 1,1 582.47,138.54000000000005A8.300000000000068,7.929999999999978 0 0,1 590.7700000000001,146.47000000000003Z" style="opacity: 1; stroke: rgb(0, 0, 0); stroke-opacity: 1; fill: rgb(200, 16, 46); fill-opacity: 1; stroke-width: 2px;"/></g><g class="shape-group" data-index="2" clip-path="url(#clipb6a469xy)"><path data-index="2" fill-rule="evenodd" d="M522.1299999999999,158.91500000000002A8.299999999999955,7.934999999999974 0 1,1 513.8299999999999,150.98000000000005A8.299999999999955,7.934999999999974 0 0,1 522.1299999999999,158.91500000000002Z" style="opacity: 1; stroke: rgb(0, 0, 0); stroke-opacity: 1; fill: rgb(200, 16, 46); fill-opacity: 1; stroke-width: 2px;"/></g><g class="shape-group" data-index="3" clip-path="url(#clipb6a469xy)"><path data-index="3" fill-rule="evenodd" d="M488.5899999999999,146.70499999999998A8.299999999999955,7.935000000000002 0 1,1 480.28999999999996,138.76999999999998A8.299999999999955,7.935000000000002 0 0,1 488.5899999999999,146.70499999999998Z" style="opacity: 1; stroke: rgb(0, 0, 0); stroke-opacity: 1; fill: rgb(200, 16, 46); fill-opacity: 1; stroke-width: 2px;"/></g><g class="shape-group" data-index="4" clip-path="url(#clipb6a469xy)"><path data-index="4" fill-rule="evenodd" d="M456.69,167.57999999999998A8.300000000000011,7.930000000000007 0 1,1 448.39,159.64999999999998A8.300000000000011,7.930000000000007 0 0,1 456.69,167.57999999999998Z" style="opacity: 1; stroke: rgb(0, 0, 0); stroke-opacity: 1; fill: rgb(200, 16, 46); fill-opacity: 1; stroke-width: 2px;"/></g><g class="shape-group" data-index="5" clip-path="url(#clipb6a469xy)"><path data-index="5" fill-rule="evenodd" d="M418.04,159.77499999999998A8.300000000000011,7.935000000000002 0 1,1 409.74,151.83999999999997A8.300000000000011,7.935000000000002 0 0,1 418.04,159.77499999999998Z" style="opacity: 1; stroke: rgb(0, 0, 0); stroke-opacity: 1; fill: rgb(200, 16, 46); fill-opacity: 1; stroke-width: 2px;"/></g><g class="shape-group" data-index="6" clip-path="url(#clipb6a469xy)"><path data-index="6" fill-rule="evenodd" d="M360.81,160.245A8.300000000000011,7.935000000000002 0 1,1 352.51,152.31A8.300000000000011,7.935000000000002 0 0,1 360.81,160.245Z" style="opacity: 1; stroke: rgb(0, 0, 0); stroke-opacity: 1; fill: rgb(200, 16, 46); fill-opacity: 1; stroke-width: 2px;"/></g><g class="shape-group" data-index="7" clip-path="url(#clipb6a469xy)"><path data-index="7" fill-rule="evenodd" d="M346.25,255.765A8.300000000000011,7.935000000000002 0 1,1 337.95,247.82999999999998A8.300000000000011,7.935000000000002 0 0,1 346.25,255.765Z" style="opacity: 1; stroke: rgb(0, 0, 0); stroke-opacity: 1; fill: rgb(200, 16, 46); fill-opacity: 1; stroke-width: 2px;"/></g><g class="shape-group" data-index="8" clip-path="url(#clipb6a469xy)"><path data-index="8" fill-rule="evenodd" d="M317.81999999999994,304.335A8.299999999999955,7.935000000000002 0 1,1 309.52,296.4A8.299999999999955,7.935000000000002 0 0,1 317.81999999999994,304.335Z" style="opacity: 1; stroke: rgb(0, 0, 0); stroke-opacity: 1; fill: rgb(200, 16, 46); fill-opacity: 1; stroke-width: 2px;"/></g><g class="shape-group" data-index="9" clip-path="url(#clipb6a469xy)"><path data-index="9" fill-rule="evenodd" d="M250.05,239.095A8.300000000000011,7.935000000000002 0 1,1 241.75,231.16A8.300000000000011,7.935000000000002 0 0,1 250.05,239.095Z" style="opacity: 1; stroke: rgb(0, 0, 0); stroke-opacity: 1; fill: rgb(200, 16, 46); fill-opacity: 1; stroke-width: 2px;"/></g><g class="shape-group" data-index="10" clip-path="url(#clipb6a469xy)"><path data-index="10" fill-rule="evenodd" d="M213.08,204.405A8.300000000000011,7.935000000000002 0 1,1 204.78,196.47A8.300000000000011,7.935000000000002 0 0,1 213.08,204.405Z" style="opacity: 1; stroke: rgb(0, 0, 0); stroke-opacity: 1; fill: rgb(200, 16, 46); fill-opacity: 1; stroke-width: 2px;"/></g><g class="shape-group" data-index="11" clip-path="url(#clipb6a469xy)"><path data-index="11" fill-rule="evenodd" d="M210.80999999999997,283.535A8.299999999999983,7.935000000000002 0 1,1 202.51,275.6A8.299999999999983,7.935000000000002 0 0,1 210.80999999999997,283.535Z" style="opacity: 1; stroke: rgb(0, 0, 0); stroke-opacity: 1; fill: rgb(200, 16, 46); fill-opacity: 1; stroke-width: 2px;"/></g><g class="shape-group" data-index="12" clip-path="url(#clipb6a469xy)"><path data-index="12" fill-rule="evenodd" d="M91.85,350.545A8.299999999999997,7.935000000000002 0 1,1 83.55,342.61A8.299999999999997,7.935000000000002 0 0,1 91.85,350.545Z" style="opacity: 1; stroke: rgb(0, 0, 0); stroke-opacity: 1; fill: rgb(200, 16, 46); fill-opacity: 1; stroke-width: 2px;"/></g><g class="shape-group" data-index="13" clip-path="url(#clipb6a469xy)"><path data-index="13" fill-rule="evenodd" d="M58.3,378.165A8.299999999999997,7.935000000000002 0 1,1 50,370.23A8.299999999999997,7.935000000000002 0 0,1 58.3,378.165Z" style="opacity: 1; stroke: rgb(0, 0, 0); stroke-opacity: 1; fill: rgb(200, 16, 46); fill-opacity: 1; stroke-width: 2px;"/></g><g class="shape-group" data-index="14" clip-path="url(#clipb6a469xy)"><path data-index="14" fill-rule="evenodd" d="M289.92999999999995,256.84499999999997A8.299999999999955,7.935000000000002 0 1,1 281.63,248.90999999999997A8.299999999999955,7.935000000000002 0 0,1 289.92999999999995,256.84499999999997Z" style="opacity: 1; stroke: rgb(0, 0, 0); stroke-opacity: 1; fill: rgb(200, 16, 46); fill-opacity: 1; stroke-width: 2px;"/></g><g class="shape-group" data-index="15" clip-path="url(#clipb6a469xy)"><path data-index="15" fill-rule="evenodd" d="M307.14,139.065A8.300000000000011,7.935000000000002 0 1,1 298.84,131.13A8.300000000000011,7.935000000000002 0 0,1 307.14,139.065Z" style="opacity: 1; stroke: rgb(0, 0, 0); stroke-opacity: 1; fill: rgb(200, 16, 46); fill-opacity: 1; stroke-width: 2px;"/></g><g class="shape-group" data-index="16" clip-path="url(#clipb6a469xy)"><path data-index="16" fill-rule="evenodd" d="M339.47,141.62A8.300000000000011,7.930000000000007 0 1,1 331.17,133.69A8.300000000000011,7.930000000000007 0 0,1 339.47,141.62Z" style="opacity: 1; stroke: rgb(0, 0, 0); stroke-opacity: 1; fill: rgb(200, 16, 46); fill-opacity: 1; stroke-width: 2px;"/></g><g class="shape-group" data-index="17" clip-path="url(#clipb6a469xy)"><path data-index="17" fill-rule="evenodd" d="M340.78000000000003,90.61500000000001A8.300000000000011,7.934999999999988 0 1,1 332.48,82.68000000000002A8.300000000000011,7.934999999999988 0 0,1 340.78000000000003,90.61500000000001Z" style="opacity: 1; stroke: rgb(0, 0, 0); stroke-opacity: 1; fill: rgb(200, 16, 46); fill-opacity: 1; stroke-width: 2px;"/></g><g class="shape-group" data-index="18" clip-path="url(#clipb6a469xy)"><path data-index="18" fill-rule="evenodd" d="M312.2,228.85L328.55,225.97" style="opacity: 1; stroke: rgb(0, 0, 0); stroke-opacity: 1; fill: rgb(0, 0, 0); fill-opacity: 1; stroke-width: 3px;"/></g><g class="shape-group" data-index="19" clip-path="url(#clipb6a469xy)"><path data-index="19" fill-rule="evenodd" d="M204.73,341.04L196.04,326.61" style="opacity: 1; stroke: rgb(0, 0, 0); stroke-opacity: 1; fill: rgb(0, 0, 0); fill-opacity: 1; stroke-width: 3px;"/></g><g class="shape-group" data-index="20" clip-path="url(#clipb6a469xy)"><path data-index="20" fill-rule="evenodd" d="M384.67,107.53L384.67,90.22" style="opacity: 1; stroke: rgb(0, 0, 0); stroke-opacity: 1; fill: rgb(0, 0, 0); fill-opacity: 1; stroke-width: 3px;"/></g></g></g><g class="infolayer"><g class="g-gtitle"><text class="gtitle" x="41.6" y="35" text-anchor="start" dy="0em" style="opacity: 1; font-family: Arial; font-size: 17px; fill: rgb(68, 68, 68); fill-opacity: 1; white-space: pre;"><tspan style="font-weight:bold">Fastest sector times during Japan Q3</tspan></text></g><g class="annotation" data-index="0" style="opacity: 1;"><g class="annotation-text-g" transform="rotate(0,570.71,96.36)"><g class="cursor-pointer" transform="translate(565,86)"><rect class="bg" x="0.5" y="0.5" width="11" height="19" style="stroke-width: 1px; stroke: rgb(0, 0, 0); stroke-opacity: 0; fill: rgb(0, 0, 0); fill-opacity: 0;"/><text class="annotation-text" text-anchor="middle" x="5.90625" y="14.5" style="font-family: Arial; font-size: 14px; fill: rgb(255, 255, 255); fill-opacity: 1; white-space: pre;">1</text></g></g></g><g class="annotation" data-index="1" style="opacity: 1;"><g class="annotation-text-g" transform="rotate(0,582.47,146.47)"><g class="cursor-pointer" transform="translate(576,136)"><rect class="bg" x="0.5" y="0.5" width="11" height="19" style="stroke-width: 1px; stroke: rgb(0, 0, 0); stroke-opacity: 0; fill: rgb(0, 0, 0); fill-opacity: 0;"/><text class="annotation-text" text-anchor="middle" x="5.90625" y="14.5" style="font-family: Arial; font-size: 14px; fill: rgb(255, 255, 255); fill-opacity: 1; white-space: pre;">2</text></g></g></g><g class="annotation" data-index="2" style="opacity: 1;"><g class="annotation-text-g" transform="rotate(0,513.8299999999999,158.91)"><g class="cursor-pointer" transform="translate(508,149)"><rect class="bg" x="0.5" y="0.5" width="11" height="19" style="stroke-width: 1px; stroke: rgb(0, 0, 0); stroke-opacity: 0; fill: rgb(0, 0, 0); fill-opacity: 0;"/><text class="annotation-text" text-anchor="middle" x="5.90625" y="14.5" style="font-family: Arial; font-size: 14px; fill: rgb(255, 255, 255); fill-opacity: 1; white-space: pre;">3</text></g></g></g><g class="annotation" data-index="3" style="opacity: 1;"><g class="annotation-text-g" transform="rotate(0,480.29,146.70999999999998)"><g class="cursor-pointer" transform="translate(474,137)"><rect class="bg" x="0.5" y="0.5" width="11" height="19" style="stroke-width: 1px; stroke: rgb(0, 0, 0); stroke-opacity: 0; fill: rgb(0, 0, 0); fill-opacity: 0;"/><text class="annotation-text" text-anchor="middle" x="5.90625" y="14.5" style="font-family: Arial; font-size: 14px; fill: rgb(255, 255, 255); fill-opacity: 1; white-space: pre;">4</text></g></g></g><g class="annotation" data-index="4" style="opacity: 1;"><g class="annotation-text-g" transform="rotate(0,448.39,167.57999999999998)"><g class="cursor-pointer" transform="translate(442,158)"><rect class="bg" x="0.5" y="0.5" width="11" height="19" style="stroke-width: 1px; stroke: rgb(0, 0, 0); stroke-opacity: 0; fill: rgb(0, 0, 0); fill-opacity: 0;"/><text class="annotation-text" text-anchor="middle" x="5.90625" y="14.5" style="font-family: Arial; font-size: 14px; fill: rgb(255, 255, 255); fill-opacity: 1; white-space: pre;">5</text></g></g></g><g class="annotation" data-index="5" style="opacity: 1;"><g class="annotation-text-g" transform="rotate(0,409.74,159.76999999999998)"><g class="cursor-pointer" transform="translate(404,150)"><rect class="bg" x="0.5" y="0.5" width="11" height="19" style="stroke-width: 1px; stroke: rgb(0, 0, 0); stroke-opacity: 0; fill: rgb(0, 0, 0); fill-opacity: 0;"/><text class="annotation-text" text-anchor="middle" x="5.90625" y="14.5" style="font-family: Arial; font-size: 14px; fill: rgb(255, 255, 255); fill-opacity: 1; white-space: pre;">6</text></g></g></g><g class="annotation" data-index="6" style="opacity: 1;"><g class="annotation-text-g" transform="rotate(0,352.51,160.24)"><g class="cursor-pointer" transform="translate(347,150)"><rect class="bg" x="0.5" y="0.5" width="11" height="19" style="stroke-width: 1px; stroke: rgb(0, 0, 0); stroke-opacity: 0; fill: rgb(0, 0, 0); fill-opacity: 0;"/><text class="annotation-text" text-anchor="middle" x="5.90625" y="14.5" style="font-family: Arial; font-size: 14px; fill: rgb(255, 255, 255); fill-opacity: 1; white-space: pre;">7</text></g></g></g><g class="annotation" data-index="7" style="opacity: 1;"><g class="annotation-text-g" transform="rotate(0,337.95,255.76)"><g class="cursor-pointer" transform="translate(332,246)"><rect class="bg" x="0.5" y="0.5" width="11" height="19" style="stroke-width: 1px; stroke: rgb(0, 0, 0); stroke-opacity: 0; fill: rgb(0, 0, 0); fill-opacity: 0;"/><text class="annotation-text" text-anchor="middle" x="5.90625" y="14.5" style="font-family: Arial; font-size: 14px; fill: rgb(255, 255, 255); fill-opacity: 1; white-space: pre;">8</text></g></g></g><g class="annotation" data-index="8" style="opacity: 1;"><g class="annotation-text-g" transform="rotate(0,309.52,304.34000000000003)"><g class="cursor-pointer" transform="translate(304,294)"><rect class="bg" x="0.5" y="0.5" width="11" height="19" style="stroke-width: 1px; stroke: rgb(0, 0, 0); stroke-opacity: 0; fill: rgb(0, 0, 0); fill-opacity: 0;"/><text class="annotation-text" text-anchor="middle" x="5.90625" y="14.5" style="font-family: Arial; font-size: 14px; fill: rgb(255, 255, 255); fill-opacity: 1; white-space: pre;">9</text></g></g></g><g class="annotation" data-index="9" style="opacity: 1;"><g class="annotation-text-g" transform="rotate(0,241.75,239.1)"><g class="cursor-pointer" transform="translate(232,229)"><rect class="bg" x="0.5" y="0.5" width="19" height="19" style="stroke-width: 1px; stroke: rgb(0, 0, 0); stroke-opacity: 0; fill: rgb(0, 0, 0); fill-opacity: 0;"/><text class="annotation-text" text-anchor="middle" x="9.796875" y="14.5" style="font-family: Arial; font-size: 14px; fill: rgb(255, 255, 255); fill-opacity: 1; white-space: pre;">10</text></g></g></g><g class="annotation" data-index="10" style="opacity: 1;"><g class="annotation-text-g" transform="rotate(0,204.78,204.4)"><g class="cursor-pointer" transform="translate(195,194)"><rect class="bg" x="0.5" y="0.5" width="18" height="19" style="stroke-width: 1px; stroke: rgb(0, 0, 0); stroke-opacity: 0; fill: rgb(0, 0, 0); fill-opacity: 0;"/><text class="annotation-text" text-anchor="middle" x="9.28125" y="14.5" style="font-family: Arial; font-size: 14px; fill: rgb(255, 255, 255); fill-opacity: 1; white-space: pre;">11</text></g></g></g><g class="annotation" data-index="11" style="opacity: 1;"><g class="annotation-text-g" transform="rotate(0,202.51,283.53)"><g class="cursor-pointer" transform="translate(193,274)"><rect class="bg" x="0.5" y="0.5" width="19" height="19" style="stroke-width: 1px; stroke: rgb(0, 0, 0); stroke-opacity: 0; fill: rgb(0, 0, 0); fill-opacity: 0;"/><text class="annotation-text" text-anchor="middle" x="9.796875" y="14.5" style="font-family: Arial; font-size: 14px; fill: rgb(255, 255, 255); fill-opacity: 1; white-space: pre;">12</text></g></g></g><g class="annotation" data-index="12" style="opacity: 1;"><g class="annotation-text-g" transform="rotate(0,83.55,350.55)"><g class="cursor-pointer" transform="translate(74,341)"><rect class="bg" x="0.5" y="0.5" width="19" height="19" style="stroke-width: 1px; stroke: rgb(0, 0, 0); stroke-opacity: 0; fill: rgb(0, 0, 0); fill-opacity: 0;"/><text class="annotation-text" text-anchor="middle" x="9.796875" y="14.5" style="font-family: Arial; font-size: 14px; fill: rgb(255, 255, 255); fill-opacity: 1; white-space: pre;">13</text></g></g></g><g class="annotation" data-index="13" style="opacity: 1;"><g class="annotation-text-g" transform="rotate(0,50,378.16)"><g class="cursor-pointer" transform="translate(40,368)"><rect class="bg" x="0.5" y="0.5" width="19" height="19" style="stroke-width: 1px; stroke: rgb(0, 0, 0); stroke-opacity: 0; fill: rgb(0, 0, 0); fill-opacity: 0;"/><text class="annotation-text" text-anchor="middle" x="9.796875" y="14.5" style="font-family: Arial; font-size: 14px; fill: rgb(255, 255, 255); fill-opacity: 1; white-space: pre;">14</text></g></g></g><g class="annotation" data-index="14" style="opacity: 1;"><g class="annotation-text-g" transform="rotate(0,281.63,256.84000000000003)"><g class="cursor-pointer" transform="translate(272,247)"><rect class="bg" x="0.5" y="0.5" width="19" height="19" style="stroke-width: 1px; stroke: rgb(0, 0, 0); stroke-opacity: 0; fill: rgb(0, 0, 0); fill-opacity: 0;"/><text class="annotation-text" text-anchor="middle" x="9.796875" y="14.5" style="font-family: Arial; font-size: 14px; fill: rgb(255, 255, 255); fill-opacity: 1; white-space: pre;">15</text></g></g></g><g class="annotation" data-index="15" style="opacity: 1;"><g class="annotation-text-g" transform="rotate(0,298.84,139.07)"><g class="cursor-pointer" transform="translate(289,129)"><rect class="bg" x="0.5" y="0.5" width="19" height="19" style="stroke-width: 1px; stroke: rgb(0, 0, 0); stroke-opacity: 0; fill: rgb(0, 0, 0); fill-opacity: 0;"/><text class="annotation-text" text-anchor="middle" x="9.796875" y="14.5" style="font-family: Arial; font-size: 14px; fill: rgb(255, 255, 255); fill-opacity: 1; white-space: pre;">16</text></g></g></g><g class="annotation" data-index="16" style="opacity: 1;"><g class="annotation-text-g" transform="rotate(0,331.17,141.62)"><g class="cursor-pointer" transform="translate(321,132)"><rect class="bg" x="0.5" y="0.5" width="19" height="19" style="stroke-width: 1px; stroke: rgb(0, 0, 0); stroke-opacity: 0; fill: rgb(0, 0, 0); fill-opacity: 0;"/><text class="annotation-text" text-anchor="middle" x="9.796875" y="14.5" style="font-family: Arial; font-size: 14px; fill: rgb(255, 255, 255); fill-opacity: 1; white-space: pre;">17</text></g></g></g><g class="annotation" data-index="17" style="opacity: 1;"><g class="annotation-text-g" transform="rotate(0,332.48,90.62)"><g class="cursor-pointer" transform="translate(322,81)"><rect class="bg" x="0.5" y="0.5" width="19" height="19" style="stroke-width: 1px; stroke: rgb(0, 0, 0); stroke-opacity: 0; fill: rgb(0, 0, 0); fill-opacity: 0;"/><text class="annotation-text" text-anchor="middle" x="9.796875" y="14.5" style="font-family: Arial; font-size: 14px; fill: rgb(255, 255, 255); fill-opacity: 1; white-space: pre;">18</text></g></g></g><g class="annotation" data-index="18" style="opacity: 1;"><g class="annotation-text-g" transform="rotate(0,253.5,44.499999999999986)"><g class="cursor-pointer" transform="translate(40,37)"><rect class="bg" x="0.5" y="0.5" width="426" height="14" style="stroke-width: 1px; stroke: rgb(0, 0, 0); stroke-opacity: 0; fill: rgb(0, 0, 0); fill-opacity: 0;"/><text class="annotation-text" text-anchor="start" x="2" y="11" style="font-family: Arial; font-size: 10px; fill: rgb(68, 68, 68); fill-opacity: 1; white-space: pre;">NOR and PIA took the fastest sector times Q3 but errors meant they failed to take pole position.</text></g></g></g><g class="annotation" data-index="19" style="opacity: 1;"><g class="annotation-text-g" transform="rotate(0,472.95,204.4)"><g class="cursor-pointer" transform="translate(426,185)"><rect class="bg" x="0.5" y="0.5" width="92" height="37" style="stroke-width: 1px; stroke: rgb(0, 0, 0); stroke-opacity: 0; fill: rgb(0, 0, 0); fill-opacity: 0;"/><text class="annotation-text" text-anchor="middle" x="46.359375" y="14.5" style="font-family: Arial; font-size: 14px; fill: rgb(255, 128, 0); fill-opacity: 1; white-space: pre;"><tspan class="line" dy="0em" x="46.359375" y="14.5"><tspan style="font-weight:bold">Sector 1</tspan></tspan><tspan class="line" dy="1.3em" x="46.359375" y="14.5">NOR: 30.358s</tspan></text></g></g></g><g class="annotation" data-index="20" style="opacity: 1;"><g class="annotation-text-g" transform="rotate(0,153.7,250.57)"><g class="cursor-pointer" transform="translate(112,232)"><rect class="bg" x="0.5" y="0.5" width="83" height="37" style="stroke-width: 1px; stroke: rgb(0, 0, 0); stroke-opacity: 0; fill: rgb(0, 0, 0); fill-opacity: 0;"/><text class="annotation-text" text-anchor="middle" x="42.09375" y="14.5" style="font-family: Arial; font-size: 14px; fill: rgb(0, 147, 221); fill-opacity: 1; white-space: pre;"><tspan class="line" dy="0em" x="42.09375" y="14.5"><tspan style="font-weight:bold">Sector 2</tspan></tspan><tspan class="line" dy="1.3em" x="42.09375" y="14.5">PIA: 39.197s</tspan></text></g></g></g><g class="annotation" data-index="21" style="opacity: 1;"><g class="annotation-text-g" transform="rotate(0,263.52,89)"><g class="cursor-pointer" transform="translate(222,70)"><rect class="bg" x="0.5" y="0.5" width="83" height="37" style="stroke-width: 1px; stroke: rgb(0, 0, 0); stroke-opacity: 0; fill: rgb(0, 0, 0); fill-opacity: 0;"/><text class="annotation-text" text-anchor="middle" x="42.09375" y="14.5" style="font-family: Arial; font-size: 14px; fill: rgb(0, 147, 221); fill-opacity: 1; white-space: pre;"><tspan class="line" dy="0em" x="42.09375" y="14.5"><tspan style="font-weight:bold">Sector 3</tspan></tspan><tspan class="line" dy="1.3em" x="42.09375" y="14.5">PIA: 17.205s</tspan></text></g></g></g><g class="annotation" data-index="22" style="opacity: 1;"><g class="annotation-text-g" transform="rotate(0,228.5,425.50000000000006)"><g class="cursor-pointer" transform="translate(40,418)"><rect class="bg" x="0.5" y="0.5" width="376" height="14" style="stroke-width: 1px; stroke: rgb(0, 0, 0); stroke-opacity: 0; fill: rgb(0, 0, 0); fill-opacity: 0;"/><text class="annotation-text" text-anchor="middle" x="188.46875" y="11" style="font-family: Arial; font-size: 10px; fill: rgb(169, 169, 169); fill-opacity: 1; white-space: pre;">Sources: F1 API/FastF1 v3.5.3 (collection), Grid Graphs (analysis and visualisation).</text></g></g></g><g class="annotation" data-index="23" style="opacity: 1;"><g class="annotation-text-g" transform="rotate(0,560,424.50000000000006)"><g class="cursor-pointer" transform="translate(520,416)"><rect class="bg" x="0.5" y="0.5" width="79" height="16" style="stroke-width: 1px; stroke: rgb(0, 0, 0); stroke-opacity: 1; fill: rgb(0, 128, 0); fill-opacity: 1;"/><text class="annotation-text" text-anchor="middle" x="39.96875" y="12" style="font-family: Arial; font-size: 10px; fill: rgb(255, 255, 255); fill-opacity: 1; white-space: pre;">High Confidence</text></g></g></g><g class="annotation" data-index="24" style="opacity: 1;"><g class="annotation-text-g" transform="rotate(0,570,181.32)"><g class="cursor-pointer" transform="translate(540,165)"><rect class="bg" x="0.5" y="0.5" width="59" height="32" style="stroke-width: 1px; stroke: rgb(0, 0, 0); stroke-opacity: 0; fill: rgb(0, 0, 0); fill-opacity: 0;"/><text class="annotation-text" text-anchor="middle" x="30.015625" y="13" style="font-family: Arial; font-size: 12px; fill: rgb(169, 169, 169); fill-opacity: 1; white-space: pre;"><tspan class="line" dy="0em" x="30.015625" y="13">First curve</tspan><tspan class="line" dy="1.3em" x="30.015625" y="13">(T1-T2)</tspan></text></g></g></g><g class="annotation" data-index="25" style="opacity: 1;"><g class="annotation-text-g" transform="rotate(0,432.09,125.06)"><g class="cursor-pointer" transform="translate(405,109)"><rect class="bg" x="0.5" y="0.5" width="54" height="32" style="stroke-width: 1px; stroke: rgb(0, 0, 0); stroke-opacity: 0; fill: rgb(0, 0, 0); fill-opacity: 0;"/><text class="annotation-text" text-anchor="middle" x="27.640625" y="13" style="font-family: Arial; font-size: 12px; fill: rgb(169, 169, 169); fill-opacity: 1; white-space: pre;"><tspan class="line" dy="0em" x="27.640625" y="13">'S' curves</tspan><tspan class="line" dy="1.3em" x="27.640625" y="13">(T3-T6)</tspan></text></g></g></g><g class="annotation" data-index="26" style="opacity: 1;"><g class="annotation-text-g" transform="rotate(0,354.19,189.98000000000002)"><g class="cursor-pointer" transform="translate(333,173)"><rect class="bg" x="0.5" y="0.5" width="41" height="32" style="stroke-width: 1px; stroke: rgb(0, 0, 0); stroke-opacity: 0; fill: rgb(0, 0, 0); fill-opacity: 0;"/><text class="annotation-text" text-anchor="middle" x="21.015625" y="13" style="font-family: Arial; font-size: 12px; fill: rgb(169, 169, 169); fill-opacity: 1; white-space: pre;"><tspan class="line" dy="0em" x="21.015625" y="13">Dunlop</tspan><tspan class="line" dy="1.3em" x="21.015625" y="13">(T7)</tspan></text></g></g></g><g class="annotation" data-index="27" style="opacity: 1;"><g class="annotation-text-g" transform="rotate(0,352.91,288.07)"><g class="cursor-pointer" transform="translate(330,272)"><rect class="bg" x="0.5" y="0.5" width="44" height="32" style="stroke-width: 1px; stroke: rgb(0, 0, 0); stroke-opacity: 0; fill: rgb(0, 0, 0); fill-opacity: 0;"/><text class="annotation-text" text-anchor="middle" x="22.6875" y="13" style="font-family: Arial; font-size: 12px; fill: rgb(169, 169, 169); fill-opacity: 1; white-space: pre;"><tspan class="line" dy="0em" x="22.6875" y="13">Degnas</tspan><tspan class="line" dy="1.3em" x="22.6875" y="13">(T8-T9)</tspan></text></g></g></g><g class="annotation" data-index="28" style="opacity: 1;"><g class="annotation-text-g" transform="rotate(0,199.68,172.67000000000002)"><g class="cursor-pointer" transform="translate(179,156)"><rect class="bg" x="0.5" y="0.5" width="41" height="32" style="stroke-width: 1px; stroke: rgb(0, 0, 0); stroke-opacity: 0; fill: rgb(0, 0, 0); fill-opacity: 0;"/><text class="annotation-text" text-anchor="middle" x="21.015625" y="13" style="font-family: Arial; font-size: 12px; fill: rgb(169, 169, 169); fill-opacity: 1; white-space: pre;"><tspan class="line" dy="0em" x="21.015625" y="13">Hairpin</tspan><tspan class="line" dy="1.3em" x="21.015625" y="13">(T11)</tspan></text></g></g></g><g class="annotation" data-index="29" style="opacity: 1;"><g class="annotation-text-g" transform="rotate(0,89.86,311.15)"><g class="cursor-pointer" transform="translate(61,295)"><rect class="bg" x="0.5" y="0.5" width="56" height="32" style="stroke-width: 1px; stroke: rgb(0, 0, 0); stroke-opacity: 0; fill: rgb(0, 0, 0); fill-opacity: 0;"/><text class="annotation-text" text-anchor="middle" x="28.671875" y="13" style="font-family: Arial; font-size: 12px; fill: rgb(169, 169, 169); fill-opacity: 1; white-space: pre;"><tspan class="line" dy="0em" x="28.671875" y="13">Spoon</tspan><tspan class="line" dy="1.3em" x="28.671875" y="13">(T13-T14)</tspan></text></g></g></g><g class="annotation" data-index="30" style="opacity: 1;"><g class="annotation-text-g" transform="rotate(0,273.74,224.6)"><g class="cursor-pointer" transform="translate(257,208)"><rect class="bg" x="0.5" y="0.5" width="32" height="32" style="stroke-width: 1px; stroke: rgb(0, 0, 0); stroke-opacity: 0; fill: rgb(0, 0, 0); fill-opacity: 0;"/><text class="annotation-text" text-anchor="middle" x="16.34375" y="13" style="font-family: Arial; font-size: 12px; fill: rgb(169, 169, 169); fill-opacity: 1; white-space: pre;"><tspan class="line" dy="0em" x="16.34375" y="13">130R</tspan><tspan class="line" dy="1.3em" x="16.34375" y="13">(T15)</tspan></text></g></g></g><g class="annotation" data-index="31" style="opacity: 1;"><g class="annotation-text-g" transform="rotate(0,248.2,129.39)"><g class="cursor-pointer" transform="translate(208,113)"><rect class="bg" x="0.5" y="0.5" width="80" height="32" style="stroke-width: 1px; stroke: rgb(0, 0, 0); stroke-opacity: 0; fill: rgb(0, 0, 0); fill-opacity: 0;"/><text class="annotation-text" text-anchor="middle" x="40.46875" y="13" style="font-family: Arial; font-size: 12px; fill: rgb(169, 169, 169); fill-opacity: 1; white-space: pre;"><tspan class="line" dy="0em" x="40.46875" y="13">Casio Triangle</tspan><tspan class="line" dy="1.3em" x="40.46875" y="13">(T16-T18)</tspan></text></g></g></g></g></svg>