<svg class="main-svg" xmlns="http://www.w3.org/2000/svg" xmlns:xlink="http://www.w3.org/1999/xlink" width="640" height="460" style="" viewBox="0 0 640 460"><rect x="0" y="0" width="640" height="460" style="fill: rgb(255, 255, 255); fill-opacity: 1;"/><defs id="defs-4129e4"><g class="clips"><clipPath id="clip4129e4xyplot" class="plotclip"><rect width="560" height="330"/></clipPath><clipPath class="axesclip" id="clip4129e4x"><rect x="40" y="0" width="560" height="460"/></clipPath><clipPath class="axesclip" id="clip4129e4y"><rect x="0" y="70" width="640" height="330"/></clipPath><clipPath class="axesclip" id="clip4129e4xy"><rect x="40" y="70" width="560" height="330"/></clipPath></g><g class="gradients"/><g class="patterns"/></defs><g class="bglayer"/><g class="layer-below"><g class="imagelayer"/><g class="shapelayer"/></g><g class="cartesianlayer"><g class="subplot xy"><g class="layer-subplot"><g class="shapelayer"/><g class="imagelayer"/></g><g class="minor-gridlayer"><g class="x"/><g class="y"/></g><g class="gridlayer"><g class="x"/><g class="y"/></g><g class="zerolinelayer"/><g class="layer-between"><g class="shapelayer"/><g class="imagelayer"/></g><path class="xlines-below"/><path class="ylines-below"/><g class="overlines-below"/><g class="xaxislayer-below"/><g class="yaxislayer-below"/><g class="overaxes-below"/><g class="overplot"><g class="xy" transform="translate(40,70)" clip-path="url(#clip4129e4xyplot)"><g class="scatterlayer mlayer"><g class="trace scatter tracefb42c4" style="stroke-miterlimit: 2; opacity: 1;"><g class="fills"/><g class="errorbars"/><g class="lines"><path class="js-line" d="M349.76,28.87L516.37,31.27L523.76,33.86L531.11,40.02L535.21,46.12L539.04,53.31L540.2,57.41L539.44,65.85L537.87,69.41L532.09,76.06L531.42,76.52L529.07,77.76L522.87,79.02L510.87,77.28L507.42,76.5L489.37,73.04L485.11,72.78L474.08,74.46L469.56,76.89L452.17,91.68L448.11,92.61L437.44,90.62L431.2,87.34L422.16,82.77L416.55,81.51L408.26,82.89L405.54,84.12L402.72,85.94L397.92,90.59L390.17,99.14L384.7,103.11L377.41,105.54L374.34,105.9L365.78,104.72L363.41,103.62L357.29,97.47L351.32,84.62L344.8,73L341.91,70.51L337.05,68.33L332.11,67.61L323.08,69.54L317.34,72.4L307.31,78.25L303.65,81.21L294.66,90.44L291.16,95.13L286.15,103.93L284.47,108.49L280.68,125.48L280.39,132.27L282.19,145.58L284.49,157.41L283.2,150.58" style="vector-effect: none; fill: none; stroke: rgb(255, 128, 0); stroke-opacity: 1; stroke-width: 5px; opacity: 1;"/></g><g class="points"/><g class="text"/></g><g class="trace scatter trace121930" style="stroke-miterlimit: 2; opacity: 1;"><g class="fills"/><g class="errorbars"/><g class="lines"><path class="js-line" d="M284.49,157.41L288.31,183.04L287.91,186.59L283.4,195.84L281.17,199.92L270.61,216.69L267.6,219.67L261.47,221.92L258.37,221.37L253.17,218.74L250.74,216.93L240.76,210.22L237.36,208.15L196.89,182.51L194.23,180.24L187.83,171.9L185.39,167.06L177.09,149.24L175.89,148.27L171.91,147.33L170.27,147.85L167.97,150.14L167.02,152.77L167.15,157.3L169.46,164.38L176.4,188.34L177.79,194.3L179.28,204.66L179.35,210.34L178.37,219.68L177.23,223.81L170.53,236.71L166.69,242.41L158.62,251.69L153.7,256.14L138.5,266.67L134.48,269L122.29,274.84L116.32,276.63L101.72,278.53L98.29,278.43L85.71,276.23L77.44,273.36L49.97,264.6L46.83,264.17L42.36,264.54L36.58,267.05L35.68,267.71L29.86,273.97L23.55,285.3L21.91,290.97L21.86,298.2L22.81,301.33L34.42,312.07L40.97,313.5L55.09,312.22L58.37,311.49L81.25,305.21L85.96,303.66L114.89,291.96L121.64,288.74L139.82,278.53L147.43,273.7L162.67,263.82" style="vector-effect: none; fill: none; stroke: rgb(0, 147, 221); stroke-opacity: 1; stroke-width: 5px; opacity: 1;"/></g><g class="points"/><g class="text"/></g><g class="trace scatter tracebe5c1c" style="stroke-miterlimit: 2; opacity: 1;"><g class="fills"/><g class="errorbars"/><g class="lines"><path class="js-line" d="M162.67,263.82L247.32,208.46L253.31,203.13L255.72,199.3L258.66,191.98L263.14,175.68L264.24,169.09L265.47,148.6L265.28,143.34L263.83,91.2L265.02,87.92L268.23,83.68L270.81,82.62L276.88,80.97L278.15,79.86L280.53,75.9L281.17,72.7L282.13,56.34L283.98,52.4L289.33,45.19L292.9,41.68L304.67,33.99L307.19,32.88L314.36,30.52L321.84,29.26L339.56,28.79L347.98,28.87L349.76,28.87" style="vector-effect: none; fill: none; stroke: rgb(0, 147, 221); stroke-opacity: 1; stroke-width: 5px; opacity: 1;"/></g><g class="points"/><g class="text"/></g></g></g></g><path class="xlines-above crisp" d="M0,0" style="fill: none;"/><path class="ylines-above crisp" d="M0,0" style="fill: none;"/><g class="overlines-above"/><g class="xaxislayer-above"/><g class="yaxislayer-above"/><g class="overaxes-above"/></g></g><g class="polarlayer"/><g class="smithlayer"/><g class="ternarylayer"/><g class="geolayer"/><g class="funnelarealayer"/><g class="pielayer"/><g class="iciclelayer"/><g class="treemaplayer"/><g class="sunburstlayer"/><g class="glimages"/><defs id="topdefs-4129e4"><g class="clips"/></defs><g class="layer-above"><g class="imagelayer"/><g class="shapelayer"><g class="shape-group" data-index="0" clip-path="url(#clip4129e4xy)"><path data-index="0" fill-rule="evenodd" d="M587.06,96.36A8.424999999999955,7.929999999999993 0 1,1 578.635,88.43A8.424999999999955,7.929999999999993 0 0,1 587.06,96.36Z" style="opacity: 1; stroke: rgb(0, 0, 0); stroke-opacity: 1; fill: rgb(200, 16, 46); fill-opacity: 1; stroke-width: 2px;"/></g><g class="shape-group" data-index="1" clip-path="url(#clip4129e4xy)"><path data-index="1" fill-rule="evenodd" d="M599.0000000000001,146.47000000000003A8.425000000000068,7.929999999999978 0 1,1 590.575,138.54000000000005A8.425000000000068,7.929999999999978 0 0,1 599.0000000000001,146.47000000000003Z" style="opacity: 1; stroke: rgb(0, 0, 0); stroke-opacity: 1; fill: rgb(200, 16, 46); fill-opacity: 1; stroke-width: 2px;"/></g><g class="shape-group" data-index="2" clip-path="url(#clip4129e4xy)"><path data-index="2" fill-rule="evenodd" d="M529.3199999999999,158.91500000000002A8.424999999999955,7.934999999999974 0 1,1 520.895,150.98000000000005A8.424999999999955,7.934999999999974 0 0,1 529.3199999999999,158.91500000000002Z" style="opacity: 1; stroke: rgb(0, 0, 0); stroke-opacity: 1; fill: rgb(200, 16, 46); fill-opacity: 1; stroke-width: 2px;"/></g><g class="shape-group" data-index="3" clip-path="url(#clip4129e4xy)"><path data-index="3" fill-rule="evenodd" d="M495.27000000000004,146.70499999999998A8.430000000000007,7.935000000000002 0 1,1 486.84000000000003,138.76999999999998A8.430000000000007,7.935000000000002 0 0,1 495.27000000000004,146.70499999999998Z" style="opacity: 1; stroke: rgb(0, 0, 0); stroke-opacity: 1; fill: rgb(200, 16, 46); fill-opacity: 1; stroke-width: 2px;"/></g><g class="shape-group" data-index="4" clip-path="url(#clip4129e4xy)"><path data-index="4" fill-rule="evenodd" d="M462.88,167.57999999999998A8.430000000000007,7.930000000000007 0 1,1 454.45,159.64999999999998A8.430000000000007,7.930000000000007 0 0,1 462.88,167.57999999999998Z" style="opacity: 1; stroke: rgb(0, 0, 0); stroke-opacity: 1; fill: rgb(200, 16, 46); fill-opacity: 1; stroke-width: 2px;"/></g><g class="shape-group" data-index="5" clip-path="url(#clip4129e4xy)"><path data-index="5" fill-rule="evenodd" d="M423.65000000000003,159.77499999999998A8.430000000000007,7.935000000000002 0 1,1 415.22,151.83999999999997A8.430000000000007,7.935000000000002 0 0,1 423.65000000000003,159.77499999999998Z" style="opacity: 1; stroke: rgb(0, 0, 0); stroke-opacity: 1; fill: rgb(200, 16, 46); fill-opacity: 1; stroke-width: 2px;"/></g><g class="shape-group" data-index="6" clip-path="url(#clip4129e4xy)"><path data-index="6" fill-rule="evenodd" d="M365.54,160.245A8.425000000000011,7.935000000000002 0 1,1 357.115,152.31A8.425000000000011,7.935000000000002 0 0,1 365.54,160.245Z" style="opacity: 1; stroke: rgb(0, 0, 0); stroke-opacity: 1; fill: rgb(200, 16, 46); fill-opacity: 1; stroke-width: 2px;"/></g><g class="shape-group" data-index="7" clip-path="url(#clip4129e4xy)"><path data-index="7" fill-rule="evenodd" d="M350.76000000000005,255.765A8.425000000000011,7.935000000000002 0 1,1 342.33500000000004,247.82999999999998A8.425000000000011,7.935000000000002 0 0,1 350.76000000000005,255.765Z" style="opacity: 1; stroke: rgb(0, 0, 0); stroke-opacity: 1; fill: rgb(200, 16, 46); fill-opacity: 1; stroke-width: 2px;"/></g><g class="shape-group" data-index="8" clip-path="url(#clip4129e4xy)"><path data-index="8" fill-rule="evenodd" d="M321.90000000000003,304.335A8.425000000000011,7.935000000000002 0 1,1 313.475,296.4A8.425000000000011,7.935000000000002 0 0,1 321.90000000000003,304.335Z" style="opacity: 1; stroke: rgb(0, 0, 0); stroke-opacity: 1; fill: rgb(200, 16, 46); fill-opacity: 1; stroke-width: 2px;"/></g><g class="shape-group" data-index="9" clip-path="url(#clip4129e4xy)"><path data-index="9" fill-rule="evenodd" d="M253.09000000000003,239.095A8.425000000000011,7.935000000000002 0 1,1 244.66500000000002,231.16A8.425000000000011,7.935000000000002 0 0,1 253.09000000000003,239.095Z" style="opacity: 1; stroke: rgb(0, 0, 0); stroke-opacity: 1; fill: rgb(200, 16, 46); fill-opacity: 1; stroke-width: 2px;"/></g><g class="shape-group" data-index="10" clip-path="url(#clip4129e4xy)"><path data-index="10" fill-rule="evenodd" d="M215.56999999999996,204.405A8.429999999999978,7.935000000000002 0 1,1 207.14,196.47A8.429999999999978,7.935000000000002 0 0,1 215.56999999999996,204.405Z" style="opacity: 1; stroke: rgb(0, 0, 0); stroke-opacity: 1; fill: rgb(200, 16, 46); fill-opacity: 1; stroke-width: 2px;"/></g><g class="shape-group" data-index="11" clip-path="url(#clip4129e4xy)"><path data-index="11" fill-rule="evenodd" d="M213.25999999999996,283.535A8.424999999999983,7.935000000000002 0 1,1 204.83499999999998,275.6A8.424999999999983,7.935000000000002 0 0,1 213.25999999999996,283.535Z" style="opacity: 1; stroke: rgb(0, 0, 0); stroke-opacity: 1; fill: rgb(200, 16, 46); fill-opacity: 1; stroke-width: 2px;"/></g><g class="shape-group" data-index="12" clip-path="url(#clip4129e4xy)"><path data-index="12" fill-rule="evenodd" d="M92.49000000000001,350.545A8.430000000000007,7.935000000000002 0 1,1 84.06,342.61A8.430000000000007,7.935000000000002 0 0,1 92.49000000000001,350.545Z" style="opacity: 1; stroke: rgb(0, 0, 0); stroke-opacity: 1; fill: rgb(200, 16, 46); fill-opacity: 1; stroke-width: 2px;"/></g><g class="shape-group" data-index="13" clip-path="url(#clip4129e4xy)"><path data-index="13" fill-rule="evenodd" d="M58.43,378.165A8.43,7.935000000000002 0 1,1 50,370.23A8.43,7.935000000000002 0 0,1 58.43,378.165Z" style="opacity: 1; stroke: rgb(0, 0, 0); stroke-opacity: 1; fill: rgb(200, 16, 46); fill-opacity: 1; stroke-width: 2px;"/></g><g class="shape-group" data-index="14" clip-path="url(#clip4129e4xy)"><path data-index="14" fill-rule="evenodd" d="M293.58000000000004,256.84499999999997A8.425000000000011,7.935000000000002 0 1,1 285.15500000000003,248.90999999999997A8.425000000000011,7.935000000000002 0 0,1 293.58000000000004,256.84499999999997Z" style="opacity: 1; stroke: rgb(0, 0, 0); stroke-opacity: 1; fill: rgb(200, 16, 46); fill-opacity: 1; stroke-width: 2px;"/></g><g class="shape-group" data-index="15" clip-path="url(#clip4129e4xy)"><path data-index="15" fill-rule="evenodd" d="M311.05,139.065A8.425000000000011,7.935000000000002 0 1,1 302.625,131.13A8.425000000000011,7.935000000000002 0 0,1 311.05,139.065Z" style="opacity: 1; stroke: rgb(0, 0, 0); stroke-opacity: 1; fill: rgb(200, 16, 46); fill-opacity: 1; stroke-width: 2px;"/></g><g class="shape-group" data-index="16" clip-path="url(#clip4129e4xy)"><path data-index="16" fill-rule="evenodd" d="M343.88,141.62A8.425000000000011,7.930000000000007 0 1,1 335.455,133.69A8.425000000000011,7.930000000000007 0 0,1 343.88,141.62Z" style="opacity: 1; stroke: rgb(0, 0, 0); stroke-opacity: 1; fill: rgb(200, 16, 46); fill-opacity: 1; stroke-width: 2px;"/></g><g class="shape-group" data-index="17" clip-path="url(#clip4129e4xy)"><path data-index="17" fill-rule="evenodd" d="M345.2099999999999,90.61500000000001A8.42999999999995,7.934999999999988 0 1,1 336.78,82.68000000000002A8.42999999999995,7.934999999999988 0 0,1 345.2099999999999,90.61500000000001Z" style="opacity: 1; stroke: rgb(0, 0, 0); stroke-opacity: 1; fill: rgb(200, 16, 46); fill-opacity: 1; stroke-width: 2px;"/></g><g class="shape-group" data-index="18" clip-path="url(#clip4129e4xy)"><path data-index="18" fill-rule="evenodd" d="M316.2,228.85L332.79,225.97" style="opacity: 1; stroke: rgb(0, 0, 0); stroke-opacity: 1; fill: rgb(0, 0, 0); fill-opacity: 1; stroke-width: 3px;"/></g><g class="shape-group" data-index="19" clip-path="url(#clip4129e4xy)"><path data-index="19" fill-rule="evenodd" d="M207.08,341.04L198.27,326.61" style="opacity: 1; stroke: rgb(0, 0, 0); stroke-opacity: 1; fill: rgb(0, 0, 0); fill-opacity: 1; stroke-width: 3px;"/></g><g class="shape-group" data-index="20" clip-path="url(#clip4129e4xy)"><path data-index="20" fill-rule="evenodd" d="M389.76,107.53L389.76,90.22" style="opacity: 1; stroke: rgb(0, 0, 0); stroke-opacity: 1; fill: rgb(0, 0, 0); fill-opacity: 1; stroke-width: 3px;"/></g></g></g><g class="infolayer"><g class="g-gtitle"><text class="gtitle" x="41.6" y="35" text-anchor="start" dy="0em" style="opacity: 1; font-family: Arial; font-size: 17px; fill: rgb(68, 68, 68); fill-opacity: 1; white-space: pre;"><tspan style="font-weight:bold">Fastest sector times during Japan Q3</tspan></text></g><g class="annotation" data-index="0" style="opacity: 1;"><g class="annotation-text-g" transform="rotate(0,578.64,96.36)"><g class="cursor-pointer" transform="translate(573,86)"><rect class="bg" x="0.5" y="0.5" width="11" height="19" style="stroke-width: 1px; stroke: rgb(0, 0, 0); stroke-opacity: 0; fill: rgb(0, 0, 0); fill-opacity: 0;"/><text class="annotation-text" text-anchor="middle" x="5.90625" y="14.5" style="font-family: Arial; font-size: 14px; fill: rgb(255, 255, 255); fill-opacity: 1; white-space: pre;">1</text></g></g></g><g class="annotation" data-index="1" style="opacity: 1;"><g class="annotation-text-g" transform="rotate(0,590.57,146.47)"><g class="cursor-pointer" transform="translate(585,136)"><rect class="bg" x="0.5" y="0.5" width="11" height="19" style="stroke-width: 1px; stroke: rgb(0, 0, 0); stroke-opacity: 0; fill: rgb(0, 0, 0); fill-opacity: 0;"/><text class="annotation-text" text-anchor="middle" x="5.90625" y="14.5" style="font-family: Arial; font-size: 14px; fill: rgb(255, 255, 255); fill-opacity: 1; white-space: pre;">2</text></g></g></g><g class="annotation" data-index="2" style="opacity: 1;"><g class="annotation-text-g" transform="rotate(0,520.89,158.91)"><g class="cursor-pointer" transform="translate(515,149)"><rect class="bg" x="0.5" y="0.5" width="11" height="19" style="stroke-width: 1px; stroke: rgb(0, 0, 0); stroke-opacity: 0; fill: rgb(0, 0, 0); fill-opacity: 0;"/><text class="annotation-text" text-anchor="middle" x="5.90625" y="14.5" style="font-family: Arial; font-size: 14px; fill: rgb(255, 255, 255); fill-opacity: 1; white-space: pre;">3</text></g></g></g><g class="annotation" data-index="3" style="opacity: 1;"><g class="annotation-text-g" transform="rotate(0,486.84,146.70999999999998)"><g class="cursor-pointer" transform="translate(481,137)"><rect class="bg" x="0.5" y="0.5" width="11" height="19" style="stroke-width: 1px; stroke: rgb(0, 0, 0); stroke-opacity: 0; fill: rgb(0, 0, 0); fill-opacity: 0;"/><text class="annotation-text" text-anchor="middle" x="5.90625" y="14.5" style="font-family: Arial; font-size: 14px; fill: rgb(255, 255, 255); fill-opacity: 1; white-space: pre;">4</text></g></g></g><g class="annotation" data-index="4" style="opacity: 1;"><g class="annotation-text-g" transform="rotate(0,454.45,167.57999999999998)"><g class="cursor-pointer" transform="translate(448,158)"><rect class="bg" x="0.5" y="0.5" width="11" height="19" style="stroke-width: 1px; stroke: rgb(0, 0, 0); stroke-opacity: 0; fill: rgb(0, 0, 0); fill-opacity: 0;"/><text class="annotation-text" text-anchor="middle" x="5.90625" y="14.5" style="font-family: Arial; font-size: 14px; fill: rgb(255, 255, 255); fill-opacity: 1; white-space: pre;">5</text></g></g></g><g class="annotation" data-index="5" style="opacity: 1;"><g class="annotation-text-g" transform="rotate(0,415.22,159.76999999999998)"><g class="cursor-pointer" transform="translate(409,150)"><rect class="bg" x="0.5" y="0.5" width="11" height="19" style="stroke-width: 1px; stroke: rgb(0, 0, 0); stroke-opacity: 0; fill: rgb(0, 0, 0); fill-opacity: 0;"/><text class="annotation-text" text-anchor="middle" x="5.90625" y="14.5" style="font-family: Arial; font-size: 14px; fill: rgb(255, 255, 255); fill-opacity: 1; white-space: pre;">6</text></g></g></g><g class="annotation" data-index="6" style="opacity: 1;"><g class="annotation-text-g" transform="rotate(0,357.12,160.24)"><g class="cursor-pointer" transform="translate(351,150)"><rect class="bg" x="0.5" y="0.5" width="11" height="19" style="stroke-width: 1px; stroke: rgb(0, 0, 0); stroke-opacity: 0; fill: rgb(0, 0, 0); fill-opacity: 0;"/><text class="annotation-text" text-anchor="middle" x="5.90625" y="14.5" style="font-family: Arial; font-size: 14px; fill: rgb(255, 255, 255); fill-opacity: 1; white-space: pre;">7</text></g></g></g><g class="annotation" data-index="7" style="opacity: 1;"><g class="annotation-text-g" transform="rotate(0,342.33,255.76)"><g class="cursor-pointer" transform="translate(336,246)"><rect class="bg" x="0.5" y="0.5" width="11" height="19" style="stroke-width: 1px; stroke: rgb(0, 0, 0); stroke-opacity: 0; fill: rgb(0, 0, 0); fill-opacity: 0;"/><text class="annotation-text" text-anchor="middle" x="5.90625" y="14.5" style="font-family: Arial; font-size: 14px; fill: rgb(255, 255, 255); fill-opacity: 1; white-space: pre;">8</text></g></g></g><g class="annotation" data-index="8" style="opacity: 1;"><g class="annotation-text-g" transform="rotate(0,313.48,304.34000000000003)"><g class="cursor-pointer" transform="translate(307,294)"><rect class="bg" x="0.5" y="0.5" width="11" height="19" style="stroke-width: 1px; stroke: rgb(0, 0, 0); stroke-opacity: 0; fill: rgb(0, 0, 0); fill-opacity: 0;"/><text class="annotation-text" text-anchor="middle" x="5.90625" y="14.5" style="font-family: Arial; font-size: 14px; fill: rgb(255, 255, 255); fill-opacity: 1; white-space: pre;">9</text></g></g></g><g class="annotation" data-index="9" style="opacity: 1;"><g class="annotation-text-g" transform="rotate(0,244.67,239.1)"><g class="cursor-pointer" transform="translate(235,229)"><rect class="bg" x="0.5" y="0.5" width="19" height="19" style="stroke-width: 1px; stroke: rgb(0, 0, 0); stroke-opacity: 0; fill: rgb(0, 0, 0); fill-opacity: 0;"/><text class="annotation-text" text-anchor="middle" x="9.796875" y="14.5" style="font-family: Arial; font-size: 14px; fill: rgb(255, 255, 255); fill-opacity: 1; white-space: pre;">10</text></g></g></g><g class="annotation" data-index="10" style="opacity: 1;"><g class="annotation-text-g" transform="rotate(0,207.14,204.4)"><g class="cursor-pointer" transform="translate(198,194)"><rect class="bg" x="0.5" y="0.5" width="18" height="19" style="stroke-width: 1px; stroke: rgb(0, 0, 0); stroke-opacity: 0; fill: rgb(0, 0, 0); fill-opacity: 0;"/><text class="annotation-text" text-anchor="middle" x="9.28125" y="14.5" style="font-family: Arial; font-size: 14px; fill: rgb(255, 255, 255); fill-opacity: 1; white-space: pre;">11</text></g></g></g><g class="annotation" data-index="11" style="opacity: 1;"><g class="annotation-text-g" transform="rotate(0,204.83,283.53)"><g class="cursor-pointer" transform="translate(195,274)"><rect class="bg" x="0.5" y="0.5" width="19" height="19" style="stroke-width: 1px; stroke: rgb(0, 0, 0); stroke-opacity: 0; fill: rgb(0, 0, 0); fill-opacity: 0;"/><text class="annotation-text" text-anchor="middle" x="9.796875" y="14.5" style="font-family: Arial; font-size: 14px; fill: rgb(255, 255, 255); fill-opacity: 1; white-space: pre;">12</text></g></g></g><g class="annotation" data-index="12" style="opacity: 1;"><g class="annotation-text-g" transform="rotate(0,84.06,350.55)"><g class="cursor-pointer" transform="translate(74,341)"><rect class="bg" x="0.5" y="0.5" width="19" height="19" style="stroke-width: 1px; stroke: rgb(0, 0, 0); stroke-opacity: 0; fill: rgb(0, 0, 0); fill-opacity: 0;"/><text class="annotation-text" text-anchor="middle" x="9.796875" y="14.5" style="font-family: Arial; font-size: 14px; fill: rgb(255, 255, 255); fill-opacity: 1; white-space: pre;">13</text></g></g></g><g class="annotation" data-index="13" style="opacity: 1;"><g class="annotation-text-g" transform="rotate(0,50,378.16)"><g class="cursor-pointer" transform="translate(40,368)"><rect class="bg" x="0.5" y="0.5" width="19" height="19" style="stroke-width: 1px; stroke: rgb(0, 0, 0); stroke-opacity: 0; fill: rgb(0, 0, 0); fill-opacity: 0;"/><text class="annotation-text" text-anchor="middle" x="9.796875" y="14.5" style="font-family: Arial; font-size: 14px; fill: rgb(255, 255, 255); fill-opacity: 1; white-space: pre;">14</text></g></g></g><g class="annotation" data-index="14" style="opacity: 1;"><g class="annotation-text-g" transform="rotate(0,285.15999999999997,256.84000000000003)"><g class="cursor-pointer" transform="translate(275,247)"><rect class="bg" x="0.5" y="0.5" width="19" height="19" style="stroke-width: 1px; stroke: rgb(0, 0, 0); stroke-opacity: 0; fill: rgb(0, 0, 0); fill-opacity: 0;"/><text class="annotation-text" text-anchor="middle" x="9.796875" y="14.5" style="font-family: Arial; font-size: 14px; fill: rgb(255, 255, 255); fill-opacity: 1; white-space: pre;">15</text></g></g></g><g class="annotation" data-index="15" style="opacity: 1;"><g class="annotation-text-g" transform="rotate(0,302.63,139.07)"><g class="cursor-pointer" transform="translate(293,129)"><rect class="bg" x="0.5" y="0.5" width="19" height="19" style="stroke-width: 1px; stroke: rgb(0, 0, 0); stroke-opacity: 0; fill: rgb(0, 0, 0); fill-opacity: 0;"/><text class="annotation-text" text-anchor="middle" x="9.796875" y="14.5" style="font-family: Arial; font-size: 14px; fill: rgb(255, 255, 255); fill-opacity: 1; white-space: pre;">16</text></g></g></g><g class="annotation" data-index="16" style="opacity: 1;"><g class="annotation-text-g" transform="rotate(0,335.45,141.62)"><g class="cursor-pointer" transform="translate(325,132)"><rect class="bg" x="0.5" y="0.5" width="19" height="19" style="stroke-width: 1px; stroke: rgb(0, 0, 0); stroke-opacity: 0; fill: rgb(0, 0, 0); fill-opacity: 0;"/><text class="annotation-text" text-anchor="middle" x="9.796875" y="14.5" style="font-family: Arial; font-size: 14px; fill: rgb(255, 255, 255); fill-opacity: 1; white-space: pre;">17</text></g></g></g><g class="annotation" data-index="17" style="opacity: 1;"><g class="annotation-text-g" transform="rotate(0,336.78,90.62)"><g class="cursor-pointer" transform="translate(327,81)"><rect class="bg" x="0.5" y="0.5" width="19" height="19" style="stroke-width: 1px; stroke: rgb(0, 0, 0); stroke-opacity: 0; fill: rgb(0, 0, 0); fill-opacity: 0;"/><text class="annotation-text" text-anchor="middle" x="9.796875" y="14.5" style="font-family: Arial; font-size: 14px; fill: rgb(255, 255, 255); fill-opacity: 1; white-space: pre;">18</text></g></g></g><g class="annotation" data-index="18" style="opacity: 1;"><g class="annotation-text-g" transform="rotate(0,253.5,44.499999999999986)"><g class="cursor-pointer" transform="translate(40,37)"><rect class="bg" x="0.5" y="0.5" width="426" height="14" style="stroke-width: 1px; stroke: rgb(0, 0, 0); stroke-opacity: 0; fill: rgb(0, 0, 0); fill-opacity: 0;"/><text class="annotation-text" text-anchor="start" x="2" y="11" style="font-family: Arial; font-size: 10px; fill: rgb(68, 68, 68); fill-opacity: 1; white-space: pre;">NOR and PIA took the fastest sector times Q3 but errors meant they failed to take pole position.</text></g></g></g><g class="annotation" data-index="19" style="opacity: 1;"><g class="annotation-text-g" transform="rotate(0,479.39,204.4)"><g class="cursor-pointer" transform="translate(433,185)"><rect class="bg" x="0.5" y="0.5" width="92" height="37" style="stroke-width: 1px; stroke: rgb(0, 0, 0); stroke-opacity: 0; fill: rgb(0, 0, 0); fill-opacity: 0;"/><text class="annotation-text" text-anchor="middle" x="46.359375" y="14.5" style="font-family: Arial; font-size: 14px; fill: rgb(255, 128, 0); fill-opacity: 1; white-space: pre;"><tspan class="line" dy="0em" x="46.359375" y="14.5"><tspan style="font-weight:bold">Sector 1</tspan></tspan><tspan class="line" dy="1.3em" x="46.359375" y="14.5">NOR: 30.358s</tspan></text></g></g></g><g class="annotation" data-index="20" style="opacity: 1;"><g class="annotation-text-g" transform="rotate(0,155.28,250.57)"><g class="cursor-pointer" transform="translate(113,232)"><rect class="bg" x="0.5" y="0.5" width="83" height="37" style="stroke-width: 1px; stroke: rgb(0, 0, 0); stroke-opacity: 0; fill: rgb(0, 0, 0); fill-opacity: 0;"/><text class="annotation-text" text-anchor="middle" x="42.09375" y="14.5" style="font-family: Arial; font-size: 14px; fill: rgb(0, 147, 221); fill-opacity: 1; white-space: pre;"><tspan class="line" dy="0em" x="42.09375" y="14.5"><tspan style="font-weight:bold">Sector 2</tspan></tspan><tspan class="line" dy="1.3em" x="42.09375" y="14.5">PIA: 39.197s</tspan></text></g></g></g><g class="annotation" data-index="21" style="opacity: 1;"><g class="annotation-text-g" transform="rotate(0,266.78,89)"><g class="cursor-pointer" transform="translate(225,70)"><rect class="bg" x="0.5" y="0.5" width="83" height="37" style="stroke-width: 1px; stroke: rgb(0, 0, 0); stroke-opacity: 0; fill: rgb(0, 0, 0); fill-opacity: 0;"/><text class="annotation-text" text-anchor="middle" x="42.09375" y="14.5" style="font-family: Arial; font-size: 14px; fill: rgb(0, 147, 221); fill-opacity: 1; white-space: pre;"><tspan class="line" dy="0em" x="42.09375" y="14.5"><tspan style="font-weight:bold">Sector 3</tspan></tspan><tspan class="line" dy="1.3em" x="42.09375" y="14.5">PIA: 17.205s</tspan></text></g></g></g><g class="annotation" data-index="22" style="opacity: 1;"><g class="annotation-text-g" transform="rotate(0,228.5,425.50000000000006)"><g class="cursor-pointer" transform="translate(40,418)"><rect class="bg" x="0.5" y="0.5" width="376" height="14" style="stroke-width: 1px; stroke: rgb(0, 0, 0); stroke-opacity: 0; fill: rgb(0, 0, 0); fill-opacity: 0;"/><text class="annotation-text" text-anchor="middle" x="188.46875" y="11" style="font-family: Arial; font-size: 10px; fill: rgb(169, 169, 169); fill-opacity: 1; white-space: pre;">Sources: F1 API/FastF1 v3.5.3 (collection), Grid Graphs (analysis and visualisation).</text></g></g></g><g class="annotation" data-index="23" style="opacity: 1;"><g class="annotation-text-g" transform="rotate(0,560,424.50000000000006)"><g class="cursor-pointer" transform="translate(520,416)"><rect class="bg" x="0.5" y="0.5" width="79" height="16" style="stroke-width: 1px; stroke: rgb(0, 0, 0); stroke-opacity: 1; fill: rgb(0, 128, 0); fill-opacity: 1;"/><text class="annotation-text" text-anchor="middle" x="39.96875" y="12" style="font-family: Arial; font-size: 10px; fill: rgb(255, 255, 255); fill-opacity: 1; white-space: pre;">High Confidence</text></g></g></g></g></svg>